<mxfile host="app.diagrams.net" modified="2024-02-26T16:29:59.077Z" agent="Mozilla/5.0 (Windows NT 10.0; Win64; x64) AppleWebKit/537.36 (KHTML, like Gecko) Chrome/122.0.0.0 Safari/537.36" etag="uFCXPq_fPCW1IzZFcNrA" version="23.1.6" type="device">
  <diagram name="Страница — 1" id="mfhErYSEB2Cj-C9hJKNa">
    <mxGraphModel dx="1050" dy="589" grid="1" gridSize="10" guides="1" tooltips="1" connect="1" arrows="1" fold="1" page="1" pageScale="1" pageWidth="827" pageHeight="1169" math="0" shadow="0">
      <root>
        <mxCell id="0" />
        <mxCell id="1" parent="0" />
        <mxCell id="5jPX9nh4GCpduCWvJ7Wr-9" style="edgeStyle=orthogonalEdgeStyle;rounded=0;orthogonalLoop=1;jettySize=auto;html=1;entryX=0;entryY=0.5;entryDx=0;entryDy=0;" edge="1" parent="1" target="5jPX9nh4GCpduCWvJ7Wr-3">
          <mxGeometry relative="1" as="geometry">
            <mxPoint x="270" y="150" as="sourcePoint" />
            <Array as="points">
              <mxPoint x="270" y="190" />
            </Array>
          </mxGeometry>
        </mxCell>
        <mxCell id="5jPX9nh4GCpduCWvJ7Wr-13" value="Указывает" style="edgeLabel;html=1;align=center;verticalAlign=middle;resizable=0;points=[];" vertex="1" connectable="0" parent="5jPX9nh4GCpduCWvJ7Wr-9">
          <mxGeometry x="0.2438" relative="1" as="geometry">
            <mxPoint x="11" y="-10" as="offset" />
          </mxGeometry>
        </mxCell>
        <mxCell id="5jPX9nh4GCpduCWvJ7Wr-1" value="Преподаватель" style="shape=umlActor;verticalLabelPosition=bottom;verticalAlign=top;html=1;outlineConnect=0;fontStyle=1" vertex="1" parent="1">
          <mxGeometry x="235" y="70" width="30" height="60" as="geometry" />
        </mxCell>
        <mxCell id="5jPX9nh4GCpduCWvJ7Wr-2" value="Студент" style="shape=umlActor;verticalLabelPosition=bottom;verticalAlign=top;html=1;outlineConnect=0;fontStyle=1" vertex="1" parent="1">
          <mxGeometry x="580" y="70" width="30" height="60" as="geometry" />
        </mxCell>
        <mxCell id="5jPX9nh4GCpduCWvJ7Wr-33" style="edgeStyle=orthogonalEdgeStyle;rounded=0;orthogonalLoop=1;jettySize=auto;html=1;exitX=0;exitY=0.75;exitDx=0;exitDy=0;entryX=0;entryY=0.25;entryDx=0;entryDy=0;dashed=1;" edge="1" parent="1" source="5jPX9nh4GCpduCWvJ7Wr-3" target="5jPX9nh4GCpduCWvJ7Wr-8">
          <mxGeometry relative="1" as="geometry" />
        </mxCell>
        <mxCell id="5jPX9nh4GCpduCWvJ7Wr-34" value="Используются&lt;br&gt;для вывода" style="edgeLabel;html=1;align=center;verticalAlign=middle;resizable=0;points=[];" vertex="1" connectable="0" parent="5jPX9nh4GCpduCWvJ7Wr-33">
          <mxGeometry x="0.1728" y="-2" relative="1" as="geometry">
            <mxPoint x="-38" y="65" as="offset" />
          </mxGeometry>
        </mxCell>
        <mxCell id="5jPX9nh4GCpduCWvJ7Wr-3" value="Критерии оценок" style="rounded=1;whiteSpace=wrap;html=1;fontStyle=1" vertex="1" parent="1">
          <mxGeometry x="360" y="160" width="120" height="60" as="geometry" />
        </mxCell>
        <mxCell id="5jPX9nh4GCpduCWvJ7Wr-17" style="edgeStyle=orthogonalEdgeStyle;rounded=0;orthogonalLoop=1;jettySize=auto;html=1;exitX=0.5;exitY=1;exitDx=0;exitDy=0;entryX=0.5;entryY=0;entryDx=0;entryDy=0;" edge="1" parent="1" source="5jPX9nh4GCpduCWvJ7Wr-4" target="5jPX9nh4GCpduCWvJ7Wr-5">
          <mxGeometry relative="1" as="geometry" />
        </mxCell>
        <mxCell id="5jPX9nh4GCpduCWvJ7Wr-18" value="Создает" style="edgeLabel;html=1;align=center;verticalAlign=middle;resizable=0;points=[];" vertex="1" connectable="0" parent="5jPX9nh4GCpduCWvJ7Wr-17">
          <mxGeometry x="-0.05" relative="1" as="geometry">
            <mxPoint x="30" as="offset" />
          </mxGeometry>
        </mxCell>
        <mxCell id="5jPX9nh4GCpduCWvJ7Wr-4" value="Генератор упражнений" style="rounded=1;whiteSpace=wrap;html=1;fontStyle=1" vertex="1" parent="1">
          <mxGeometry x="360" y="240" width="120" height="60" as="geometry" />
        </mxCell>
        <mxCell id="5jPX9nh4GCpduCWvJ7Wr-19" style="edgeStyle=orthogonalEdgeStyle;rounded=0;orthogonalLoop=1;jettySize=auto;html=1;exitX=0.5;exitY=1;exitDx=0;exitDy=0;entryX=0.5;entryY=0;entryDx=0;entryDy=0;" edge="1" parent="1" source="5jPX9nh4GCpduCWvJ7Wr-5" target="5jPX9nh4GCpduCWvJ7Wr-6">
          <mxGeometry relative="1" as="geometry" />
        </mxCell>
        <mxCell id="5jPX9nh4GCpduCWvJ7Wr-20" value="Формируют" style="edgeLabel;html=1;align=center;verticalAlign=middle;resizable=0;points=[];" vertex="1" connectable="0" parent="5jPX9nh4GCpduCWvJ7Wr-19">
          <mxGeometry x="-0.2167" y="1" relative="1" as="geometry">
            <mxPoint x="31" y="2" as="offset" />
          </mxGeometry>
        </mxCell>
        <mxCell id="5jPX9nh4GCpduCWvJ7Wr-5" value="Упражнения" style="rounded=1;whiteSpace=wrap;html=1;fontStyle=1" vertex="1" parent="1">
          <mxGeometry x="360" y="320" width="120" height="60" as="geometry" />
        </mxCell>
        <mxCell id="5jPX9nh4GCpduCWvJ7Wr-21" style="edgeStyle=orthogonalEdgeStyle;rounded=0;orthogonalLoop=1;jettySize=auto;html=1;exitX=0.5;exitY=1;exitDx=0;exitDy=0;entryX=0.5;entryY=0;entryDx=0;entryDy=0;" edge="1" parent="1" source="5jPX9nh4GCpduCWvJ7Wr-6" target="5jPX9nh4GCpduCWvJ7Wr-7">
          <mxGeometry relative="1" as="geometry" />
        </mxCell>
        <mxCell id="5jPX9nh4GCpduCWvJ7Wr-22" value="Содержит" style="edgeLabel;html=1;align=center;verticalAlign=middle;resizable=0;points=[];" vertex="1" connectable="0" parent="5jPX9nh4GCpduCWvJ7Wr-21">
          <mxGeometry x="-0.1333" y="2" relative="1" as="geometry">
            <mxPoint x="28" as="offset" />
          </mxGeometry>
        </mxCell>
        <mxCell id="5jPX9nh4GCpduCWvJ7Wr-6" value="Тест" style="rounded=1;whiteSpace=wrap;html=1;fontStyle=1" vertex="1" parent="1">
          <mxGeometry x="360" y="400" width="120" height="60" as="geometry" />
        </mxCell>
        <mxCell id="5jPX9nh4GCpduCWvJ7Wr-41" style="edgeStyle=orthogonalEdgeStyle;rounded=0;orthogonalLoop=1;jettySize=auto;html=1;exitX=0.5;exitY=1;exitDx=0;exitDy=0;entryX=0.5;entryY=0;entryDx=0;entryDy=0;" edge="1" parent="1" source="5jPX9nh4GCpduCWvJ7Wr-7" target="5jPX9nh4GCpduCWvJ7Wr-8">
          <mxGeometry relative="1" as="geometry" />
        </mxCell>
        <mxCell id="5jPX9nh4GCpduCWvJ7Wr-42" value="Формируют" style="edgeLabel;html=1;align=center;verticalAlign=middle;resizable=0;points=[];" vertex="1" connectable="0" parent="5jPX9nh4GCpduCWvJ7Wr-41">
          <mxGeometry x="-0.34" y="-4" relative="1" as="geometry">
            <mxPoint x="39" y="3" as="offset" />
          </mxGeometry>
        </mxCell>
        <mxCell id="5jPX9nh4GCpduCWvJ7Wr-7" value="Поле упражнения" style="rounded=1;whiteSpace=wrap;html=1;fontStyle=1" vertex="1" parent="1">
          <mxGeometry x="360" y="480" width="120" height="60" as="geometry" />
        </mxCell>
        <mxCell id="5jPX9nh4GCpduCWvJ7Wr-8" value="Результаты тестирования" style="rounded=1;whiteSpace=wrap;html=1;fontStyle=1" vertex="1" parent="1">
          <mxGeometry x="360" y="560" width="120" height="60" as="geometry" />
        </mxCell>
        <mxCell id="5jPX9nh4GCpduCWvJ7Wr-10" style="edgeStyle=orthogonalEdgeStyle;rounded=0;orthogonalLoop=1;jettySize=auto;html=1;entryX=0;entryY=0.5;entryDx=0;entryDy=0;" edge="1" parent="1" target="5jPX9nh4GCpduCWvJ7Wr-4">
          <mxGeometry relative="1" as="geometry">
            <mxPoint x="260" y="150" as="sourcePoint" />
            <mxPoint x="360" y="190" as="targetPoint" />
            <Array as="points">
              <mxPoint x="260" y="270" />
            </Array>
          </mxGeometry>
        </mxCell>
        <mxCell id="5jPX9nh4GCpduCWvJ7Wr-14" value="Настраивает" style="edgeLabel;html=1;align=center;verticalAlign=middle;resizable=0;points=[];" vertex="1" connectable="0" parent="5jPX9nh4GCpduCWvJ7Wr-10">
          <mxGeometry x="0.5027" y="1" relative="1" as="geometry">
            <mxPoint x="13" y="-9" as="offset" />
          </mxGeometry>
        </mxCell>
        <mxCell id="5jPX9nh4GCpduCWvJ7Wr-11" style="edgeStyle=orthogonalEdgeStyle;rounded=0;orthogonalLoop=1;jettySize=auto;html=1;entryX=0;entryY=0.5;entryDx=0;entryDy=0;" edge="1" parent="1" target="5jPX9nh4GCpduCWvJ7Wr-5">
          <mxGeometry relative="1" as="geometry">
            <mxPoint x="250" y="150" as="sourcePoint" />
            <mxPoint x="360" y="270" as="targetPoint" />
            <Array as="points">
              <mxPoint x="250" y="350" />
            </Array>
          </mxGeometry>
        </mxCell>
        <mxCell id="5jPX9nh4GCpduCWvJ7Wr-16" value="Выбирает" style="edgeLabel;html=1;align=center;verticalAlign=middle;resizable=0;points=[];" vertex="1" connectable="0" parent="5jPX9nh4GCpduCWvJ7Wr-11">
          <mxGeometry x="0.6343" y="1" relative="1" as="geometry">
            <mxPoint as="offset" />
          </mxGeometry>
        </mxCell>
        <mxCell id="5jPX9nh4GCpduCWvJ7Wr-12" style="edgeStyle=orthogonalEdgeStyle;rounded=0;orthogonalLoop=1;jettySize=auto;html=1;entryX=0;entryY=0.5;entryDx=0;entryDy=0;" edge="1" parent="1" target="5jPX9nh4GCpduCWvJ7Wr-6">
          <mxGeometry relative="1" as="geometry">
            <mxPoint x="240" y="150" as="sourcePoint" />
            <mxPoint x="340" y="400" as="targetPoint" />
            <Array as="points">
              <mxPoint x="240" y="430" />
            </Array>
          </mxGeometry>
        </mxCell>
        <mxCell id="5jPX9nh4GCpduCWvJ7Wr-23" value="Отправляет&lt;br&gt;студентам" style="edgeLabel;html=1;align=center;verticalAlign=middle;resizable=0;points=[];" vertex="1" connectable="0" parent="5jPX9nh4GCpduCWvJ7Wr-12">
          <mxGeometry x="0.7186" y="2" relative="1" as="geometry">
            <mxPoint y="-13" as="offset" />
          </mxGeometry>
        </mxCell>
        <mxCell id="5jPX9nh4GCpduCWvJ7Wr-24" style="edgeStyle=orthogonalEdgeStyle;rounded=0;orthogonalLoop=1;jettySize=auto;html=1;entryX=0;entryY=0.5;entryDx=0;entryDy=0;" edge="1" parent="1" target="5jPX9nh4GCpduCWvJ7Wr-8">
          <mxGeometry relative="1" as="geometry">
            <mxPoint x="230" y="150" as="sourcePoint" />
            <mxPoint x="350" y="430" as="targetPoint" />
            <Array as="points">
              <mxPoint x="230" y="590" />
            </Array>
          </mxGeometry>
        </mxCell>
        <mxCell id="5jPX9nh4GCpduCWvJ7Wr-25" value="Просматривает" style="edgeLabel;html=1;align=center;verticalAlign=middle;resizable=0;points=[];" vertex="1" connectable="0" parent="5jPX9nh4GCpduCWvJ7Wr-24">
          <mxGeometry x="0.7186" y="2" relative="1" as="geometry">
            <mxPoint x="14" y="-8" as="offset" />
          </mxGeometry>
        </mxCell>
        <mxCell id="5jPX9nh4GCpduCWvJ7Wr-28" style="edgeStyle=orthogonalEdgeStyle;rounded=0;orthogonalLoop=1;jettySize=auto;html=1;entryX=1;entryY=0.5;entryDx=0;entryDy=0;" edge="1" parent="1" target="5jPX9nh4GCpduCWvJ7Wr-4">
          <mxGeometry relative="1" as="geometry">
            <mxPoint x="580" y="150" as="sourcePoint" />
            <mxPoint x="660" y="270" as="targetPoint" />
            <Array as="points">
              <mxPoint x="580" y="270" />
            </Array>
          </mxGeometry>
        </mxCell>
        <mxCell id="5jPX9nh4GCpduCWvJ7Wr-29" value="Настраивает" style="edgeLabel;html=1;align=center;verticalAlign=middle;resizable=0;points=[];" vertex="1" connectable="0" parent="5jPX9nh4GCpduCWvJ7Wr-28">
          <mxGeometry x="0.5027" y="1" relative="1" as="geometry">
            <mxPoint x="-17" y="-9" as="offset" />
          </mxGeometry>
        </mxCell>
        <mxCell id="5jPX9nh4GCpduCWvJ7Wr-35" style="edgeStyle=orthogonalEdgeStyle;rounded=0;orthogonalLoop=1;jettySize=auto;html=1;entryX=1;entryY=0.5;entryDx=0;entryDy=0;" edge="1" parent="1" target="5jPX9nh4GCpduCWvJ7Wr-6">
          <mxGeometry relative="1" as="geometry">
            <mxPoint x="590" y="150" as="sourcePoint" />
            <mxPoint x="480" y="430" as="targetPoint" />
            <Array as="points">
              <mxPoint x="590" y="430" />
            </Array>
          </mxGeometry>
        </mxCell>
        <mxCell id="5jPX9nh4GCpduCWvJ7Wr-36" value="Получает" style="edgeLabel;html=1;align=center;verticalAlign=middle;resizable=0;points=[];" vertex="1" connectable="0" parent="5jPX9nh4GCpduCWvJ7Wr-35">
          <mxGeometry x="0.7186" y="2" relative="1" as="geometry">
            <mxPoint y="-13" as="offset" />
          </mxGeometry>
        </mxCell>
        <mxCell id="5jPX9nh4GCpduCWvJ7Wr-37" style="edgeStyle=orthogonalEdgeStyle;rounded=0;orthogonalLoop=1;jettySize=auto;html=1;entryX=1;entryY=0.5;entryDx=0;entryDy=0;" edge="1" parent="1" target="5jPX9nh4GCpduCWvJ7Wr-7">
          <mxGeometry relative="1" as="geometry">
            <mxPoint x="600" y="150" as="sourcePoint" />
            <mxPoint x="480" y="510" as="targetPoint" />
            <Array as="points">
              <mxPoint x="600" y="510" />
            </Array>
          </mxGeometry>
        </mxCell>
        <mxCell id="5jPX9nh4GCpduCWvJ7Wr-38" value="Заполняет" style="edgeLabel;html=1;align=center;verticalAlign=middle;resizable=0;points=[];" vertex="1" connectable="0" parent="5jPX9nh4GCpduCWvJ7Wr-37">
          <mxGeometry x="0.7186" y="2" relative="1" as="geometry">
            <mxPoint x="-12" y="-13" as="offset" />
          </mxGeometry>
        </mxCell>
        <mxCell id="5jPX9nh4GCpduCWvJ7Wr-39" style="edgeStyle=orthogonalEdgeStyle;rounded=0;orthogonalLoop=1;jettySize=auto;html=1;" edge="1" parent="1">
          <mxGeometry relative="1" as="geometry">
            <mxPoint x="610" y="150" as="sourcePoint" />
            <mxPoint x="480" y="590" as="targetPoint" />
            <Array as="points">
              <mxPoint x="610" y="590" />
            </Array>
          </mxGeometry>
        </mxCell>
        <mxCell id="5jPX9nh4GCpduCWvJ7Wr-40" value="Просматривает" style="edgeLabel;html=1;align=center;verticalAlign=middle;resizable=0;points=[];" vertex="1" connectable="0" parent="5jPX9nh4GCpduCWvJ7Wr-39">
          <mxGeometry x="0.7186" y="2" relative="1" as="geometry">
            <mxPoint x="-14" y="-12" as="offset" />
          </mxGeometry>
        </mxCell>
      </root>
    </mxGraphModel>
  </diagram>
</mxfile>
